<?xml version="1.0" standalone="no"?><!DOCTYPE svg PUBLIC "-//W3C//DTD SVG 1.1//EN" "http://www.w3.org/Graphics/SVG/1.1/DTD/svg11.dtd"><svg t="1715351258688" class="icon" viewBox="0 0 1024 1024" version="1.1" xmlns="http://www.w3.org/2000/svg" p-id="1100" xmlns:xlink="http://www.w3.org/1999/xlink" width="200" height="200"><path d="M347.456 256m41.152 0l466.24 0q41.152 0 41.152 41.152l0 0q0 41.152-41.152 41.152l-466.24 0q-41.152 0-41.152-41.152l0 0q0-41.152 41.152-41.152Z" fill="#262626" p-id="1101"></path><path d="M128 256m54.848 0l0 0q54.848 0 54.848 54.848l0 0q0 54.848-54.848 54.848l0 0q-54.848 0-54.848-54.848l0 0q0-54.848 54.848-54.848Z" fill="#262626" p-id="1102"></path><path d="M347.456 475.456m41.152 0l466.24 0q41.152 0 41.152 41.152l0 0q0 41.152-41.152 41.152l-466.24 0q-41.152 0-41.152-41.152l0 0q0-41.152 41.152-41.152Z" fill="#262626" p-id="1103"></path><path d="M128 475.456m54.848 0l0 0q54.848 0 54.848 54.848l0 0q0 54.848-54.848 54.848l0 0q-54.848 0-54.848-54.848l0 0q0-54.848 54.848-54.848Z" fill="#262626" p-id="1104"></path><path d="M347.456 694.848m41.152 0l466.24 0q41.152 0 41.152 41.152l0 0q0 41.152-41.152 41.152l-466.24 0q-41.152 0-41.152-41.152l0 0q0-41.152 41.152-41.152Z" fill="#262626" p-id="1105"></path><path d="M128 694.848m54.848 0l0 0q54.848 0 54.848 54.848l0 0q0 54.848-54.848 54.848l0 0q-54.848 0-54.848-54.848l0 0q0-54.848 54.848-54.848Z" fill="#262626" p-id="1106"></path></svg>